<svg id="Layer_1" data-name="Layer 1" xmlns="http://www.w3.org/2000/svg" viewBox="0 0 910.03 767.63"><defs><style>.cls-1{fill:#1d1d1b;}</style></defs><path class="cls-1" d="M429.37,259.94c-14.75-9.74-30.7-17-44-28.25-15.68-13.32-24.46-30.43-26.06-51-1.34-17.12-.09-34.28-.5-51.43a253,253,0,0,0-8.33-59.63c-.9-3.38-.45-5.05,2.67-6.71a37.11,37.11,0,0,0,15.26-14.72c1.14-2,2.48-3.38,5.05-3.33,6.16.11,12.2-1.26,18.31-1.72a9.78,9.78,0,0,0,8.08-4.86c6-9,13.55-15.88,24.54-18.39,8.88-2,16.06.36,21.77,7.32a47.85,47.85,0,0,1,3.71,5.33c3.86,6.28,6.95,6.34,10.73.17,3.4-5.54,7.84-9.94,14-12.28,10.12-3.83,21.65-.31,30,9.15,1.65,1.86,3.72,3.63,4.64,5.84,2.74,6.57,7.88,8.31,14.33,8.42,3.3,0,6.71.9,9.88.76,5.35-.23,8.14,2,10.55,6.36,3,5.39,8,8.94,13.21,11.9,3.18,1.78,3.93,3.79,3,7.29a240.92,240.92,0,0,0-8.3,63.1c0,14.15.16,28.3-.07,42.45-.46,28.23-13,49.88-36.75,64.78-18.19,11.43-36.9,22-55.24,33.2-3.43,2.1-5.91,1.8-9.06-.28C443.9,268.81,436.74,264.54,429.37,259.94ZM495.08,47.05c.21,3.56.88,7.3-4.66,7.29-23.5,0-47,0-70.5,0-1.91,0-3.58-.38-4.15-2.71-1.1-4.52,1.57-12.11,5.19-14.33,4.15-2.55,9.25-1.75,13.53,2.63,2.36,2.41,4.67,2.66,7.53,1.57-1.85-7.16-7.1-11.52-13.85-11.66-6.45-.14-14.8,5.5-16.6,11-.92,2.81.72,5.19.91,7.81.31,4.3-.93,6-5.47,5.87-8.82-.29-17.66-.1-26.49-.12-2.21,0-4.34,0-5.64,2.3-2.75,4.87-6.72,8.67-11,12.19-1.78,1.47-2.7,2.9-1.92,5.56,3.68,12.54,4.25,25.55,4.91,38.48,1,19.79,1.34,39.61,1.28,59.44,0,7.13.6,14.26,2.93,21.14A69.59,69.59,0,0,0,400,230.6c17.34,11.2,35.67,20.84,52.69,32.57,2.61,1.79,4.79,1.23,7.32-.33,17.14-10.6,34.37-21,51.54-31.6a65.52,65.52,0,0,0,18.24-16.87c12.11-16.28,14.18-35.1,13.64-54.61-.29-10.31-.54-20.65-.08-30.94.81-18.25,1.28-36.57,5.46-54.49.74-3.17-.45-5.08-2.92-6.66a31.9,31.9,0,0,1-9.82-9.84c-1.8-2.84-4-3.54-7.08-3.5-8.17.09-16.34.07-24.5,0-6.12-.05-8.55-4.25-5.46-9.55.78-1.35,1.57-2.33.83-4-2.54-5.92-10.31-10.75-17-10.36-6.07.36-12.1,5.33-14.05,11.64,3.6,3.84,5.43,0,7.57-1.87C484.14,33.25,492.48,35.93,495.08,47.05Z"/><path class="cls-1" d="M772.68,337.48c5.16-3.81,10.85-1.45,16.14-1.66,3.51-.14,7.2-.07,10.76-.34,3.91-.3,6.12.82,7.61,4.62,10.42,26.49,21,52.91,31.57,79.36.61,1.52,1.3,3,2.1,4.85,2.08-1.32,2.55-3.3,3.29-5q16.3-37.84,31.4-76.19c3.28-8.34,2.9-8.31,11.88-6.86,5.77.93,11.91-.38,17.88-.67,2.1-.11,4.19.05,4.63,2.65s-.66,4.35-3.2,4.82c-5.64,1-6.85,5.21-7.24,9.94-.21,2.49-.11,5-.11,7.5,0,28.82.1,57.64,0,86.45,0,4.48,1.41,7,6.13,7.2,2.69.1,4.51,1.47,4.35,4.36s-2.48,3.28-4.75,3.11c-11.13-.82-22.25-.1-33.37,0-2.18,0-4-.39-4.16-3.13-.16-2.43,1-3.67,3.24-4.26,7.64-2,8.16-2.58,8.18-10.37q.12-32,0-64c0-4.05,1.55-8.24-1.16-13.29l-39.65,95.16-1.56.09c-14.27-31.9-26.22-64.76-39.65-98-1.27,3-1,5.31-1,7.5q0,33.24.14,66.48a47.88,47.88,0,0,0,.31,6c1,7.84,1.29,8.17,9.18,10.16,2.68.67,4.93,1.66,4.5,4.87s-3.28,2.75-5.51,2.77c-9.46.09-18.93.07-28.39.13-2.14,0-4.14-.08-4.36-2.85s.74-4.75,3.7-4.87c5.69-.22,7.23-3.48,7.21-8.6-.1-29.66-.06-59.33-.12-89,0-2.32-.5-4.63-.67-6.95-.25-3.39-1.86-5.57-5.24-6.41C774.15,342.38,772.27,341,772.68,337.48Z"/><path class="cls-1" d="M320.24,206c-11.25-9.75-23.48-14.94-37.94-9.42-11.76,4.5-20.35,12.75-22,25.6-1.36,10.57,3.87,19.31,11.65,26.31,10.7,9.62,22.3,5.7,30.05-1.55,5.95-5.56,5.32-14.42-1.36-19.19-2.4,3-5,5.85-9.33,2.75-3.37-2.42-5.22-5.76-4.76-9.74.5-4.45,5.35-8.46,9.66-8.83,10.31-.88,18.86,7.86,20.15,19.86,2,18.79-11.73,31.36-25.36,34.65-20.18,4.87-39.89,2.4-59.3-4.61a86.77,86.77,0,0,0-28.79-5.53,14.67,14.67,0,0,0-7.26,1.53c-2.59,1.42-4.18,3.34-2.4,6.5,1.24,2.19,1.76,4.6-.67,6.22-2.15,1.45-4.09.09-5.84-1.35-.89-.73-1.9-1.33-2.86-2-5.82-3.92-6-10.82-.1-14.84,8.85-6.09,18.64-6.41,28.76-4.23,1.29.28,2.59.57,3.9.72a18,18,0,0,0,2.73-.18c-.32-3.22-2.93-4.51-4.58-6.39-6.92-7.92-10-16.93-7.06-27.23,3.41-11.9,15.14-15.09,24.24-6.87a4.67,4.67,0,0,1-1.18,7.8c-2.05,1-4.21.75-6.38.6-6.84-.47-10.56,4.41-8.1,10.9,4,10.6,12,17.85,21.09,24a45.21,45.21,0,0,0,30.84,7.8c-11.9-7-14.78-19.24-18.91-30.7-1.06-2.92-.12-5.91.41-8.86,5-27.6,30.74-41.91,57-32,8.11,3.06,14.82,8,21.45,13.66,2.58-3.49,1.26-7.14,1.41-10.42.32-7,1.38-13.89,1.95-20.84a31,31,0,0,0-4.25-17.66c-1.81-3.27-5.89-3.69-10.18-1.74.19.42.26,1,.59,1.25,2.51,1.8,6,3,4.5,7.2-1.29,3.51-6.89,6.29-10.66,5.52-6.47-1.31-10.39-6-10.26-12.16a15.26,15.26,0,0,1,13.26-14.62c15-2,27.36,8.85,28.13,24.15.56,11.1-1.91,21.86-2.67,32.81a49.68,49.68,0,0,0,4.55,24.68c7.28,15.75,20.48,25.46,35.14,33.56,7,3.86,13.92,7.85,21.3,11,1.5.63,3.11,1.29,3.3,3.9-7.44,1.37-14.73.41-21.95-1.24-6.16-1.41-12.24-3.19-18.38-4.7-9.18-2.26-17.23-1.05-22.63,7.78-1.21,2-3,3.07-5,1.62-2.66-2-6.64-3.19-5.89-7.76.64-3.88,3.1-6.54,6.15-8.76,5.2-3.78,11.21-5.55,17.25-6.53a1.94,1.94,0,0,0-.64-2.52c-10.22-7.74-15.83-19.17-23.37-29.06C326.78,213.12,324,209.34,320.24,206Z"/><path class="cls-1" d="M582.56,216.83c-7.54,9.89-13.15,21.32-23.37,29.06a1.94,1.94,0,0,0-.64,2.52c6.05,1,12.05,2.75,17.26,6.53,3,2.22,5.5,4.88,6.14,8.76.75,4.57-3.23,5.8-5.89,7.76-2,1.45-3.79.34-5-1.62-5.41-8.83-13.45-10-22.64-7.78-6.14,1.51-12.22,3.29-18.38,4.7-7.22,1.65-14.51,2.61-21.95,1.24.19-2.61,1.8-3.27,3.31-3.9,7.37-3.13,14.3-7.12,21.29-11,14.66-8.1,27.86-17.81,35.14-33.56a49.57,49.57,0,0,0,4.55-24.68c-.76-10.95-3.22-21.71-2.66-32.81.77-15.3,13.14-26.18,28.12-24.15a15.26,15.26,0,0,1,13.26,14.62c.13,6.2-3.78,10.85-10.26,12.16-3.77.77-9.37-2-10.66-5.52-1.53-4.19,2-5.41,4.5-7.2.33-.23.4-.83.59-1.25-4.28-1.95-8.37-1.53-10.18,1.73a30.94,30.94,0,0,0-4.24,17.67c.56,7,1.62,13.85,1.94,20.84.15,3.28-1.17,6.93,1.41,10.42,6.64-5.63,13.34-10.6,21.45-13.66,26.24-9.89,51.94,4.43,57,32,.54,3,1.47,5.94.41,8.86-4.13,11.46-7,23.72-18.91,30.7a45.27,45.27,0,0,0,30.84-7.8c9.1-6.15,17.08-13.4,21.09-24,2.46-6.49-1.25-11.37-8.1-10.9-2.17.15-4.33.36-6.38-.6a4.67,4.67,0,0,1-1.17-7.81c9.09-8.21,20.83-5,24.23,6.88,3,10.3-.14,19.31-7.06,27.23-1.65,1.88-4.25,3.17-4.58,6.39a18,18,0,0,0,2.73.18c1.31-.15,2.61-.44,3.91-.72,10.11-2.18,19.9-1.86,28.76,4.23,5.85,4,5.71,10.92-.1,14.84a33.83,33.83,0,0,0-2.87,2c-1.75,1.44-3.69,2.8-5.84,1.35-2.43-1.62-1.91-4-.67-6.22,1.78-3.16.19-5.08-2.4-6.5a14.63,14.63,0,0,0-7.25-1.53,86.87,86.87,0,0,0-28.8,5.53c-19.4,7-39.12,9.47-59.3,4.61-13.62-3.29-27.38-15.86-25.36-34.65,1.29-12,9.84-20.74,20.15-19.86,4.31.37,9.16,4.38,9.66,8.83.46,4-1.39,7.32-4.75,9.74-4.3,3.1-6.94.21-9.34-2.75-6.68,4.77-7.31,13.63-1.36,19.19,7.75,7.25,19.36,11.17,30.05,1.55,7.79-7,13-15.74,11.65-26.31-1.66-12.85-10.25-21.1-22-25.6-14.46-5.52-26.68-.33-37.94,9.42C588.13,209.34,585.39,213.12,582.56,216.83Z"/><path class="cls-1" d="M85.81,390.82c-6.29,10.59-16.57,14-27.24,16.52a76,76,0,0,1-19.34,2c-6.61-.15-6.89.23-6.87,6.59,0,10.48-.27,20.95.89,31.41.47,4.23,2.31,6.4,6.48,6.74a27.22,27.22,0,0,1,4.43.54c2.16.54,2.75,2.36,2.65,4.28s-1.64,2.78-3.51,2.69c-5.47-.25-10.95.6-16.42-.59-6-1.3-11.88,1.24-17.88.65a37.9,37.9,0,0,0-5,0c-2.46.09-3.69-1.15-4-3.5-.3-2.54,1.13-3.91,3.4-4,6-.19,7.33-3.7,7.31-9-.13-28.49,0-57-.12-85.47,0-3.65-.55-7.3-.81-10.95-.22-3.18-2.35-4.57-5-5.52-2.38-.84-5.27-1.6-4.72-4.83.62-3.6,4-3,6.5-3q22.49.14,45,.47c17.84.24,31.54,8.71,36.86,23.2C92.35,369.8,90.74,380.32,85.81,390.82Zm-21.22-35.5a25.84,25.84,0,0,0-28.37-10.94c-2.46.61-3.76,2-3.77,4.54q-.06,23.47-.08,46.94c0,1.8.47,3.45,2.47,3.82,13.51,2.48,27.56-2.57,31.85-16.4C69.6,373.89,68.42,364.9,64.59,355.32Z"/><path class="cls-1" d="M725.14,344c-1.62-.55-2.91-.9-4.15-1.37-1.88-.7-2.36-2.2-2.11-4a2.87,2.87,0,0,1,3-2.71c9.14-.1,18.29-.17,27.44-.16a3.09,3.09,0,0,1,3.2,2.66,3.16,3.16,0,0,1-2,3.66,16.34,16.34,0,0,1-3.25,1.27c-3.63.82-4.89,3-5.27,6.72-1.52,15-.56,30-.77,44.94-.14,10-.07,20-1.19,29.91-1.51,13.5-6.28,25.1-18.1,33-20.47,13.59-57.57,5.92-67-18.11a47.5,47.5,0,0,1-3.39-17.54c0-19.34-.1-38.67.12-58,.06-5.21-1.05-10.24-1.31-15.38-.15-3-1.95-4.76-5-5.32-2.49-.45-5.29-1.19-4.74-4.58s3.57-3,6-3c10.59-.09,21.18-.05,31.77-.15,2.06,0,3.68.27,4.1,2.6.35,2,.15,4.07-2.13,4.38-7,1-7.71,6.56-7.78,11.54-.27,19.15-.63,38.34.37,57.45.42,7.82-.3,15.75,1.84,23.68,4.14,15.29,18.62,21.58,33,17.81,13.81-3.63,20.79-13.85,21.34-28.35.78-20.79,1.63-41.58,1.64-62.39a80.92,80.92,0,0,0-1.57-13.37A6.11,6.11,0,0,0,725.14,344Z"/><path class="cls-1" d="M110.76,409c8.78-23.6,17.46-46.82,26-70.11,1.22-3.32,3.16-4.21,6.38-4.07s5.92-.15,7.46,4c10.39,27.75,21,55.39,31.66,83.05,3.39,8.85,6.93,17.65,10.44,26.46,1.3,3.25,3.31,5.76,7.07,6.35,2.05.33,3.45,1.46,3.09,3.73s-2,3.2-4.32,3.23a100.19,100.19,0,0,1-13.39-.83c-6.76-.84-13.5,1.52-20.35.84-2-.2-3.69-.43-3.89-2.88-.19-2.27.64-3.9,2.93-4.57.48-.14,1-.14,1.47-.26,3.93-1,5-3.25,3.59-7.09-3-8.13-5.74-16.32-8.48-24.53-.91-2.72-2.41-4.09-5.41-4.08-10.83.06-21.66,0-32.49-.08-3.26,0-5.07,1.32-6.31,4.44a233.82,233.82,0,0,0-7.91,23.15c-1.23,4.31.23,7.16,4.73,8,3.34.64,4.66,2.29,4.4,5.43-.28,3.5-3.1,2.28-5,2.42-7.42.51-14.86-1.11-22.3.36-2.32.46-4.84-.09-5.26-3.23-.36-2.79,1.5-3.88,3.81-4.34,5.69-1.16,7.31-5.93,9-10.39C102.1,432.51,106.31,420.94,110.76,409Zm18.82-23.8c-1.92,5.49-3.81,11-5.77,16.46s-1.63,6.14,4.51,6.2c7,.05,14-.12,21,.06,4.42.11,5.2-1.65,3.76-5.5-3.75-9.95-7.29-20-11.07-29.91-.91-2.39-.84-5.29-3.59-7.53C134.4,371.18,132.18,377.86,129.58,385.23Z"/><path class="cls-1" d="M527.39,352.84c-11.51-13.38-30.18-14.12-43.35-2-9.93,9.11-14.8,20.82-16.73,33.79a79.77,79.77,0,0,0,6.51,46.29c6.67,14.19,23.46,29.34,44.57,21a36.35,36.35,0,0,0,19.05-16.84c1.2-2.19,2.29-4.44,3.53-6.61,1-1.7,2.39-3,4.48-2.11a4,4,0,0,1,2.61,4.42c-1.4,8.28.24,16.61-.6,24.91-.54,5.3-4.22,7.58-8.44,4.38-2.85-2.16-5.11-1.95-8.18-.73-19.36,7.69-38.54,7.45-56.68-3.25-15.45-9.12-24.08-23.52-28.35-40.68-2.88-11.61-3.59-23.15-.37-35,5-18.28,15.78-31.67,32.37-40.43,11.64-6.15,24-9,37.13-6a54.63,54.63,0,0,1,17.37,7.4c2.83,1.81,4.74,1.84,6.66-1,1.12-1.66,2.55-3.45,4.88-2.52s1.48,3.08,1.56,4.85c.35,8.46.66,16.92,1.1,25.37.13,2.67.08,5.29-2.92,6.13s-4-1.84-5.08-3.82C535.14,364.44,532.58,358,527.39,352.84Z"/><path class="cls-1" d="M330.06,461.69c-1.89-.05-3.39-.08-4.89-.14-2-.08-2.94-1.38-3.16-3.21s.61-3.09,2.64-3.49c4.92-1,7.72-4.31,9.39-8.77q9.21-24.52,18.39-49.07c7.37-19.62,14.86-39.19,22.09-58.86,1.07-2.91,2.81-3.31,5.3-3.23,2.92.09,5.94-.63,7.34,3.34,3.22,9.09,6.76,18.07,10.16,27.1q13.4,35.47,26.77,71c1.11,2.95,2,6,3.15,8.94,1.58,4.11,3.5,8,8.27,9.27,2.44.66,3,2.34,2.65,4.59s-2,2.38-3.76,2.41a17.69,17.69,0,0,1-3.49,0c-9.77-1.77-19.51.24-29.26.22-2,0-4.3.4-4.78-2.29s1.22-4,3.39-4.9c6.43-2.8,6.7-3.36,4.53-9.9-2.35-7.1-4.84-14.16-7.11-21.29-1.16-3.68-3.25-5.36-7.26-5.32-10.31.1-20.63-.12-30.94-.24-2.91,0-5.12.78-6.21,3.85-2.68,7.52-5.9,14.85-7.75,22.64-1.56,6.54-.69,8.18,5.58,10.19,2.42.77,3.83,2.28,3.74,4.64-.1,3-2.68,2.43-4.56,2.45C343.67,461.69,337.06,461.68,330.06,461.69ZM386,407.92c1.45-.13,3,.24,4.64-1.79-5-13.45-9.24-27.58-15.75-41.15a289,289,0,0,0-15.94,42.94Z"/><path class="cls-1" d="M251.67,355.87c-.94,28.21,1.08,56-.22,83.82a68.06,68.06,0,0,0,.26,7c.19,3.11,1.88,5,5,5.29,10.35,1.08,20.62.8,30.39-3.21,4.46-1.83,7.55-5.37,9.79-9.62,1.55-2.94,3-5.94,4.64-8.84.86-1.53,2.1-2.57,4.12-1.78s3.2,2.08,2.68,4.18a224,224,0,0,1-8.22,26.68c-.95,2.46-3.29,3.17-5.8,3-23.27-1.16-46.57-.62-69.85-.77-2.2,0-5.13.83-5.39-2.71-.22-3,2-3.79,4.52-4.25,4.13-.77,6.33-3.17,6.34-7.6,0-20.32.2-40.64.19-61,0-11.65-.31-23.31-.35-35,0-4.24-1.54-7-5.92-7.91-2.36-.47-4.1-1.71-3.79-4.41.34-2.93,2.67-3,4.9-3,11.58.12,23.16.63,34.74-.17,1.91-.13,3.37.5,3.58,2.57.22,2.3-.3,4.33-2.83,5.21C252,346.35,251.77,346.67,251.67,355.87Z"/><path class="cls-1" d="M584.06,353c.26-6.08-1.74-9.72-7.95-10.26-2.28-.19-3.49-1.9-3.18-4.28s2.23-3.06,4.06-2.86c5.78.62,11.55-.08,17.38.72,5.33.74,10.9-.37,16.36-.47,2.16,0,5-.78,5.56,2.65s-1.51,4.84-4.42,5.47c-4.17.9-5.63,3.7-5.63,7.66q0,47.22-.08,94.46c0,4.71,1.92,7.6,6.84,8.14,2.52.27,5.36.51,4.92,4.14s-3.32,3.4-5.77,3.18c-11.44-1-22.87.11-34.29,0-2,0-4.33.39-4.85-2.32s1.3-4.26,3.66-5.19c7.31-2.87,7.91-3.65,7.93-11.2q.06-40.48,0-81C584.64,359.11,584.34,356.29,584.06,353Z"/><path class="cls-1" d="M320.49,657.06c-20.41-.11-40.37-.34-60.34-.38-35.31-.07-70.62,0-105.93-.12-2.41,0-6.82,1.77-6.75-2.47.07-3.67,4.27-2.1,6.61-2.1q300.66-.12,601.33-.09c.67,0,1.34,0,2,0,1.93.11,4.45-.4,4.21,2.73-.19,2.59-2.37,2.32-4.2,2.31-16.32-.1-32.64-.3-48.95-.26-26.81.06-53.62.42-80.43.4-40.45,0-80.9-.47-121.34-.34-20.47.07-40.94-.2-61.41.24-20.14.44-40.29-.29-60.44-.3C363.54,656.68,342.24,656.91,320.49,657.06Z"/><path class="cls-1" d="M355,522.1c7.15,0,13.81-.15,20.43.8,15.72,2.26,23.29,18.2,14.55,30.57a15,15,0,0,1-6.12,5c-2.35,1.09-2.91,2.45-1.48,4.68,4.06,6.3,8.06,12.64,12.1,19a8.3,8.3,0,0,0,5.08,3.8c1.66.41,2.74,1.24,2.59,3.08s-1.6,2.39-3.2,2.41c-3.83.06-7.66,0-11.49.07-2.46,0-3.39-1.84-4.47-3.49-4.31-6.53-8.57-13.1-12.91-19.62a35.63,35.63,0,0,0-3.67-4.71,4.45,4.45,0,0,0-5-1.25c-1.69.69-1.31,2.55-1.35,4-.09,4.16-.05,8.33-.07,12.49,0,3.4.58,6.33,4.63,7.17a2.45,2.45,0,0,1,2.08,3,2.62,2.62,0,0,1-2.83,2.3c-6.5.07-13,.12-19.49,0-1.7,0-3.51-.63-3.74-2.63-.21-1.78,1.28-2.54,2.82-3a5,5,0,0,0,3.93-5.64c-.89-14.5.83-29,.12-43.46-.19-3.93-.13-7.76-4.76-9.43a2.3,2.3,0,0,1-1.29-2.93,2.5,2.5,0,0,1,2.58-2C347.54,522.19,351,522.17,355,522.1Zm13.63,33.55c7.71-2.72,11-6.64,11-13-.05-6.94-4.24-12.14-11.64-14.46-5.3-1.67-7.95.21-8,5.74,0,4.66.05,9.33,0,14C360,555.93,360,555.93,368.66,555.65Z"/><path class="cls-1" d="M446.3,523.15c18.15-5,32.89.33,40.94,14.46,8.55,15,5.94,34.68-6.18,46.58-15.58,15.29-44.91,8.86-52.65-11.54-6.62-17.47-3.07-34.37,9.28-44.7C440.18,525.87,443.1,524.7,446.3,523.15Zm31.29,27.16a41.69,41.69,0,0,0-4.19-13.24c-6.57-12.75-21.8-13.69-29.07-1.35-7.41,12.58-6.94,26.06-1.84,39.38a17,17,0,0,0,16.26,11.35c7.54,0,13-4.94,16.17-12.19C478.24,566.76,477.81,559,477.59,550.31Z"/><path class="cls-1" d="M286.44,527.47c-15.37-1.05-22.56,10.76-24.51,23.52a34,34,0,0,0,6.38,26c4.09,5.43,9.15,9.19,16.39,8.82,5.26-.28,8.17-2.58,8.86-7.68a68.88,68.88,0,0,0,.19-10c0-2.75-2-4-4.25-5-1.27-.54-2.39-1.35-2.11-3,.32-1.85,1.73-2.31,3.34-2.32q9.25,0,18.49,0c1.57,0,3,.37,3.65,2s-.35,2.85-1.8,3.57c-2.68,1.32-3.09,3.7-3.1,6.31,0,5.66.06,11.33-.1,17-.13,4.41-1.73,5.62-5.63,3.74-2.86-1.38-5.22-.54-7.66.31-6.51,2.28-13.14,2.23-19.72.9-17.67-3.57-26.88-16.87-26.62-36.14.25-17.63,11.49-29.95,22.73-32.92,10-2.64,19.72-2.94,28.59,2.75,2.33-.29,2.68-3.81,5.18-2.72s2.19,3.6,2.31,5.68c.21,3.63,1.29,7.26.31,10.92-.39,1.44-.88,3-2.59,3.36s-2.59-1.19-3.25-2.52A23.33,23.33,0,0,0,286.44,527.47Z"/><path class="cls-1" d="M615.75,557.24c0-7.82,0-15.14,0-22.46,0-3.09,0-6-3.41-7.6a2.72,2.72,0,0,1-1.41-3.4c.46-1.66,1.92-1.73,3.24-1.68,10.12.38,20.29-.71,30.39.8,8.08,1.2,15.28,9,16.45,17.84a19.43,19.43,0,0,1-11.41,20.74A35,35,0,0,1,634,564.33c-3.73-.18-5.1,1.38-4.86,5a61.54,61.54,0,0,1,0,8.48c-.3,4.34.63,7.63,5.72,8.13a2.35,2.35,0,0,1,2.25,2.75c-.07,1.89-1.3,2.66-3,2.67q-10.49,0-21-.09a3,3,0,0,1-3.1-2.07,2.42,2.42,0,0,1,1.61-3.19c3.68-1.41,4-4.55,4-7.8C615.78,571.39,615.75,564.56,615.75,557.24Zm30.91-20.92c-2.62-5.93-7.18-9-12.63-8.63-2.92.19-4.75,1.33-4.75,4.52,0,7.32,0,14.65,0,22,0,1.57.36,2.87,2.15,3.5,5.06,1.76,12.2-1.07,14.54-6C648.19,547,648.33,542.07,646.66,536.32Z"/><path class="cls-1" d="M538.35,531c-1.57,13.68-1.1,27-.13,40.24.54,7.58,5.59,13.18,13.42,14.49,6.78,1.13,14.3-3.27,16.67-10a33,33,0,0,0,2-12.27q-.45-12.24.15-24.46c.22-4.5.89-9.61-5.22-11.51-1.19-.37-1.55-1.69-1.39-2.94a2.56,2.56,0,0,1,2.82-2.29c4.66-.07,9.32-.08,14,0,1.57,0,3,.62,3.23,2.48a2.64,2.64,0,0,1-2.1,3c-4.63,1.24-4.85,4.89-4.89,8.69-.13,10.66,0,21.33-.51,32-.54,10.42-4.12,19.16-15.18,22.91-10.68,3.62-23.78.67-31-7.07-4.51-4.86-5.42-10.91-5.8-17-.69-11.11.46-22.26-.4-33.39-.21-2.69-.71-4.85-3.54-5.94a3.29,3.29,0,0,1-2.34-3.93c.45-1.91,2.23-1.72,3.7-1.73q9.24-.08,18.49,0c1.62,0,3.52-.16,4,2.07s-.93,3-2.64,3.56A4.57,4.57,0,0,0,538.35,531Z"/><path class="cls-1" d="M317.45,756.15a18.32,18.32,0,0,1-.27,6.83c-.38,2.55-1.84,3.7-4.49,3.57s-3.75-1.74-3.89-4.21c0-.66-.06-1.33-.06-2,0-13.15,0-26.3,0-39.46,0-2.28-.39-5.2,2.53-5.85s6.31-.87,8.39,2.56c3.11,5.12,6.33,10.17,9.58,15.2,1.05,1.63,1.86,3.56,4.42,4.55,4.49-5,7.35-11.22,11.13-16.8,2-2.9,3.64-6,8-5.68,2.59.18,4.22,1,4.23,3.7,0,14.65.08,29.3,0,44,0,2.59-1.3,4.47-4.32,4.39-3.35-.09-4.06-2.16-4-5,0-7.66,0-15.32,0-23,0-1.78.44-3.69-1.21-5.48-3.13,2.38-4.43,6.06-6.62,9.05-1.67,2.27-3,4.83-4.65,7.09-2.79,3.73-4.42,3.65-7.2-.22-1.65-2.3-3.17-4.69-4.76-7s-3.15-4.63-5.45-8C316.5,742.12,318.11,749,317.45,756.15Z"/><path class="cls-1" d="M449.87,717.82c.15,14.41.21,28.38.2,42.36,0,2.52-.21,5.26-3.13,6.16-3.13,1-5.34-.67-7.18-3.18-6.29-8.59-12.66-17.12-19-25.67a12.81,12.81,0,0,0-4.59-4.54c0,8.4,0,16.11,0,23.83a31.87,31.87,0,0,1-.45,5.94c-.51,2.57-2.07,4-4.94,3.85-3.11-.2-3.86-2.18-3.87-4.75q-.08-15.74-.08-31.46c0-2.83,0-5.65,0-8.48,0-2.67-.28-5.71,3-6.68s6.07-.07,8.28,2.92c6,8.16,12.24,16.19,18.4,24.25,1,1.29,1.72,2.87,3.73,3.73,1.35-3,.75-6.13.82-9.13.13-5.65,0-11.31.06-17,0-2.09.49-4.22,2.81-4.76S448.64,714.39,449.87,717.82Z"/><path class="cls-1" d="M288.43,766.19c-4.71,1.16-7.7-.61-10-4.22-2.17-3.35-4.64-6.5-6.92-9.78a5.89,5.89,0,0,0-4.45-2.77c-6.88-.78-8.14.2-8.58,7.21-.12,2,0,4-.24,6-.3,2.74-1.85,4.09-4.72,4s-3.76-1.67-3.76-4.2c0-14.3,0-28.61,0-42.91,0-2.42,1.05-4.44,3.72-4.42,8.3,0,16.64-1,24.87.82,5.59,1.24,9.76,4.23,11.22,10.07,1.54,6.2.61,11.9-4,16.63-5.51,5.65-5.54,5.75-.85,12.37,1.35,1.9,2.82,3.72,4.05,5.7C289.83,762.35,290.82,764.22,288.43,766.19ZM265,739.88c3.65.09,7.33.2,10.78-1.25,4.85-2,6.48-7,3.68-11-2.29-3.27-16.63-4.91-19.6-2.23a4.27,4.27,0,0,0-.62.77C256.36,730.53,259.15,738.25,265,739.88Z"/><path class="cls-1" d="M501.18,736.91c16.24.09,14.07-1.09,14.13,13.58.05,9.91-3.89,14.49-15.25,16.53-10.5,1.88-20-.37-26.68-9.46-6.35-8.62-6.31-23,0-32.55,6.12-9.23,15.17-11.87,25.65-10.66,3.63.43,7.26,1.21,10.26,3.54,2.16,1.68,4.35,3.32,2.23,6.56-2,3-3.94,3.76-7.39,1.71-6.52-3.89-13.45-4-19.68.62-5.75,4.29-7.67,12.59-5.35,20,3.13,9.94,15.6,14.52,24.52,9.08,2.61-1.59,2.78-3.83,2.47-6.48-.36-3-2.56-2.89-4.76-3.18-2.82-.36-6.8,1.45-7.61-3.34C493.07,738.77,495,737.23,501.18,736.91Z"/><path class="cls-1" d="M790.84,735.9c1.47,0,2.47,0,3.46.08,2.61.22,4,1.64,3.74,4.27-.24,2.45-1,4.7-4,4.75-5.32.09-10.64.2-16,.07-5.55-.13-4.69,3.64-4.85,7.15-.18,3.73,1.37,5,5,4.86,5.82-.2,11.65,0,17.47-.06,2.87,0,5.07.75,5.05,4.05,0,2.88-1,5.13-4.42,5.55-9.13,1.12-18.28.12-27.41.38-3.29.09-4.86-2-4.87-5.11q-.06-20.71.09-41.43c0-3.71,1.79-5.71,5.91-5.62,8.49.2,17,.1,25.46,0,2.87,0,5,.62,4.81,4.1-.15,3.24-1.25,5.41-5,5.36-5.65-.07-11.31.12-17,0-3.57-.07-5.13,1.35-5.09,5,0,3.46.22,6.49,4.72,6.53C782.05,736,786.21,735.91,790.84,735.9Z"/><path class="cls-1" d="M166.87,716.76c.24,15.07.35,29.71.32,44.35,0,2.7-.42,5.48-4.17,5.62s-4.4-2.42-4.59-5.23q-.42-6.21-.49-12.46c0-2.86-1.16-4.37-4.13-4.36-4.82,0-9.65,0-14.48,0-3,0-4.1,1.51-4.07,4.34,0,4,0,8-.1,12-.07,3.1-.78,5.63-4.74,5.57-3.77-.06-4.29-2.55-4.31-5.4-.08-13.81-.09-27.63-.15-41.44,0-3.3,1.47-4.72,4.88-4.79,3.78-.08,4.47,1.91,4.41,5-.07,4,.07,8,0,12,0,2.71,1.19,4,3.9,3.93,5.15-.13,10.3-.19,15.45-.39,2.61-.1,3.78-1.4,3.54-4.23a85.05,85.05,0,0,1-.13-10.47C158.26,715,161.22,713.54,166.87,716.76Z"/><path class="cls-1" d="M223.32,739.05c3.09,7.21,6.08,14.07,8.94,21,1,2.36,1.83,5.14-1.46,6.32-2.77,1-6.16,1-7-2.58-2.21-9.63-8.93-10.57-17-9.62a21.86,21.86,0,0,1-5.48-.1c-3.38-.45-5.3,1-6.41,4.11a50.34,50.34,0,0,1-2.81,5.83c-1.54,3-4.29,3.18-6.86,2.17-2.8-1.1-1.15-3.56-.49-5.15,6.12-14.55,12.39-29,18.61-43.53a5,5,0,0,1,5.11-3.21,5.25,5.25,0,0,1,5.46,3.43C217,724.71,220.09,731.7,223.32,739.05Zm-10,4.76c1.24-3.79-1.71-11.14-5.69-13.79-2.47,4.09-4.58,8.25-5.32,13.37C206,744.36,209.33,744.12,213.34,743.81Z"/><path class="cls-1" d="M591.88,726.45c-4-1.91-7.77-3.23-11.89-2.87-2.64.23-5,1.23-5.57,4.13s1.22,4.8,3.77,5.73c4.22,1.53,8.53,2.83,12.79,4.23,5.66,1.87,9.63,5.28,10.21,11.58.65,7-2.24,12.4-8.21,15.9-7.51,4.4-20.85,2.56-27.26-3.38-2.05-1.89-2.5-3.84-.81-6.13s3.76-3.78,6.71-1.68c3.91,2.79,8.24,4.5,13.09,4,3.23-.34,6.44-1.28,7-5.21s-2.7-5-5.47-6c-3.77-1.31-7.73-2-11.51-3.32-6.94-2.35-10.23-7.08-10-13.82.3-7,5-13.07,11.53-14.6,6.92-1.61,13.59-1.06,19.71,2.83,2,1.28,4,2.89,2.4,5.69C597.09,725.85,595.71,728.39,591.88,726.45Z"/><path class="cls-1" d="M840,736.12c1.63.54,2.9,1,4.14,1.44,8.06,3,11.51,7.63,11,14.66a16.51,16.51,0,0,1-13.44,14.83,27.25,27.25,0,0,1-20.94-4.47c-3.06-2.05-3.73-4.49-1.61-7.6s4.48-2.41,7.16-.47a18.39,18.39,0,0,0,13.24,3.38c2.9-.36,5.61-1.65,6.12-5s-2.09-4.7-4.64-5.61c-3.12-1.12-6.34-2-9.55-2.84-8.45-2.22-13-7.51-12.72-14.93.32-8.39,4.9-13.47,13.82-15.07a24.39,24.39,0,0,1,17.29,3.26c2.15,1.3,4.2,3,2.34,6.07-1.64,2.75-3.37,4.36-6.82,2.52s-7.41-3.22-11.51-2.58c-2.46.38-5.11,1.17-5.43,4.28-.3,2.91,1.57,4.69,4,5.69S837.24,735.26,840,736.12Z"/><path class="cls-1" d="M628.63,748.58c3.1,7.49,8,10.53,14.32,9.28,5.79-1.15,9.63-6.16,9.78-13.36.16-8,0-16,0-24,0-3.55,1.2-5.76,5.25-5.56,2.29.12,3.36,1.1,3.34,3.36-.1,10.5.33,21-.45,31.47-.66,9-8.95,18.33-21.12,17.82-11.5-.49-18.51-6-20.17-17.31-1.49-10.28-.28-20.61-.11-30.91.06-3.35,2-4.55,5.3-4.42s3.54,2.24,3.54,4.78C628.36,729.22,628.46,738.72,628.63,748.58Z"/><path class="cls-1" d="M91.14,724.07c-8.51-1.24-14.43,1.64-17.36,8.19-3.08,6.86-1.42,16.89,3.54,21.45,5.66,5.2,12.62,5.65,19.81,1.28,1-.61,2-1.27,3-1.87,2.53-1.52,4.39-.46,6.06,1.55s.61,3.61-.83,5.19c-6.62,7.35-15,9-24.17,6.89-9.7-2.2-15.28-8.84-18-18.21-1.63-5.69-.74-11.25.8-16.72,4.76-17,26.93-23.93,39.86-12.56,2,1.73,3.84,3.32,1.64,6.24-2,2.66-4.09,3.79-7.1,1.48A14.08,14.08,0,0,0,91.14,724.07Z"/><path class="cls-1" d="M746.48,721.53c-1.88,3.69-5.05,2.91-7.71,2.73-4.94-.33-6.83,1.44-6.66,6.56.33,9.48.06,19,.08,28.47a10.91,10.91,0,0,1-1.2,5.8c-1.11,1.85-3,2-4.85,1.7-2.77-.45-3.21-2.63-3.22-4.89,0-9.66-.06-19.32,0-29,.05-8.45.1-8.42-8.31-8.57-2.1,0-4.44.54-6-1.58-2.1-2.88,0-7.63,3.72-7.7,10.16-.19,20.32-.14,30.48-.08C747.16,715,747.62,717.68,746.48,721.53Z"/><path class="cls-1" d="M688.67,715.46c1.78,1.53,1.5,3.25,1.5,4.89q0,19.68,0,39.35a9.65,9.65,0,0,1-.87,4.84,4.17,4.17,0,0,1-4.57,2.23,3.28,3.28,0,0,1-3.17-3.25c-.23-2.47-.47-4.95-.48-7.43,0-11.46-.12-22.92.1-34.37C681.31,715.54,682.38,714.81,688.67,715.46Z"/><path class="cls-1" d="M386.35,733.24c0,8.8.06,17.09,0,25.39a22.12,22.12,0,0,1-.61,5.39c-.58,2.22-2.24,3.17-4.56,2.89a3.53,3.53,0,0,1-3.39-3.62c-.12-1.82-.13-3.65-.13-5.47q0-18.66,0-37.33c0-2.89.46-5.37,4.14-5.53,2.74-.12,4.54.73,4.53,3.84C386.32,723.45,386.34,728.1,386.35,733.24Z"/><path class="cls-1" d="M445.81,14c4.35-3.91,5.39-9.83,10.07-14,3.69,5.68,6.73,11.38,11.33,15.89a1.68,1.68,0,0,1-.08,2.31c-4.63,4-7.65,9.4-11.46,15-4.29-5.15-6.59-10.8-11.53-14.41C442.27,17.43,444.36,15.55,445.81,14Z"/><path class="cls-1" d="M373.62,170.23c-.65-23.63-1.09-46.77-2.08-69.89-.29-6.9-.85-14-3.14-20.64-1.44-4.23-.89-7.65,3.27-10.28a11.88,11.88,0,0,0,4.64-5.13c2.08-5.21,5.83-5.57,10.72-5.54,22.32.09,44.65-.66,67-.26,24.32.43,48.64.18,73,.39,2.5,0,4.64.25,5.71,2.91a18.34,18.34,0,0,0,7,8.3c3.69,2.5,4,5.48,3.17,9.49-3.37,16-4.51,32.25-4.64,48.59-.14,17.14-.21,34.3-.9,51.42-.86,21.11-12.38,36.35-29.23,47.43-15.84,10.41-32.56,19.49-48.88,29.17-1.82,1.08-3.53,1.62-5.57.34-16.79-10.53-34.83-19-51.05-30.43-15.25-10.75-25.94-24.74-28.5-43.91C373.54,178.36,373.75,174.55,373.62,170.23ZM449.69,247c4.35,3.58,8.43,3.06,13.18.17,9.94-6.06,20.22-11.56,30.37-17.28,9.45-5.33,18.88-10.8,25.93-19.23,8.91-10.68,12.36-23.47,12.28-37.12-.12-19.62.11-39.17,1.95-58.75,1-10.74,1.37-21.56,2.31-32.34a16.15,16.15,0,0,0-16-17.25c-40.82,0-81.65.3-122.47-.26-8.15-.12-14.82,0-20,7.19-1.55,2.16-2.66,3.71-2.34,6.55,1.7,15,3.59,30,4.13,45.16.66,18.79-.58,37.6,1.16,56.4a51.4,51.4,0,0,0,18.55,35.78C413.89,228.84,432.49,236.12,449.69,247Z"/><path class="cls-1" d="M426.18,208.29a48.49,48.49,0,0,1-4.92-.39c-2.3-.4-4.15-1.47-4.21-4.14s1.93-3.81,4.24-3.93c5.69-.31,7.12-4,7.4-8.79.1-1.66.06-3.32.06-5,0-22.15-.1-44.29.08-66.44.06-6.52-1-12.93-1.13-19.41-.07-3.4-2.38-4.55-5.06-5.26-2.31-.61-5-1-4.49-4.16s3.3-3.89,6.16-3.59a125.65,125.65,0,0,0,24.44.44c7.33-.67,14.64-1.26,21.88-.37,15.39,1.9,27.41,8.62,33.06,24.18,5.89,16.21-2,34.88-17.8,41.59A63.52,63.52,0,0,1,454.23,158c-3.82-.39-4.78,1.31-4.78,4.44,0,9.16-.21,18.33.1,27.47.27,7.81,1.59,9,9.32,10.1,2.25.32,3.83,1,4,3.53s-1.5,3.81-3.48,4.2a23.05,23.05,0,0,1-7.92.45C443.16,206.75,434.91,207.7,426.18,208.29Zm50.89-65.48c7.43-6.76,7.5-15.7,6.62-24.52-1.7-17.05-13.14-24-28.3-23.55-3.71.11-5.88,2.14-5.89,6q-.06,21.94,0,43.89c0,2.1.67,3.86,3.25,4.28C461.47,150.31,469.66,149.6,477.07,142.81Z"/></svg>